<svg xmlns="http://www.w3.org/2000/svg" width="339" height="124" viewBox="0 0 339 124" version="1.1"><path d="M 114.500 15.687 C 78.927 20.283, 43.123 36.428, 21.385 57.673 C 7.440 71.302, 1.448 83.218, 2.164 95.893 C 2.502 101.878, 3.001 103.437, 5.619 106.694 C 8.625 110.433, 16.604 115.729, 17.652 114.681 C 17.946 114.388, 16.848 113.455, 15.212 112.610 C 7.846 108.801, 4.109 100.380, 5.959 91.757 C 12.175 62.774, 64.049 28.689, 116.590 19.066 C 134.503 15.784, 135.955 15.196, 126 15.252 C 121.325 15.278, 116.150 15.474, 114.500 15.687 M 225.762 19.707 C 227.006 19.946, 228.806 19.937, 229.762 19.687 C 230.718 19.437, 229.700 19.241, 227.500 19.252 C 225.300 19.263, 224.518 19.468, 225.762 19.707 M 233 21 C 233.825 21.533, 234.950 21.969, 235.500 21.969 C 236.050 21.969, 235.825 21.533, 235 21 C 234.175 20.467, 233.050 20.031, 232.500 20.031 C 231.950 20.031, 232.175 20.467, 233 21 M 143 25 C 143 26.650, 143.174 28, 143.387 28 C 143.599 28, 143.971 26.650, 144.213 25 C 144.455 23.350, 144.282 22, 143.827 22 C 143.372 22, 143 23.350, 143 25 M 128 26.625 C 128 27.152, 130.137 29.590, 132.750 32.042 L 137.500 36.500 133 31.519 C 130.525 28.779, 128.387 26.341, 128.250 26.102 C 128.113 25.863, 128 26.098, 128 26.625 M 135 27.500 C 136.375 28.286, 137.950 28.929, 138.500 28.929 C 139.050 28.929, 138.375 28.286, 137 27.500 C 135.625 26.714, 134.050 26.071, 133.500 26.071 C 132.950 26.071, 133.625 26.714, 135 27.500 M 206.558 38.907 C 206.249 39.405, 206.898 39.578, 207.999 39.290 C 210.334 38.679, 210.629 38, 208.559 38 C 207.766 38, 206.866 38.408, 206.558 38.907 M 140 41.383 C 140 41.594, 140.901 42.002, 142.001 42.290 C 143.102 42.578, 143.751 42.405, 143.442 41.907 C 142.904 41.036, 140 40.594, 140 41.383 M 120 42.666 C 79.951 48.966, 40.774 78.475, 39.178 103.544 C 38.612 112.431, 40.877 116.379, 48.327 119.492 C 52.942 121.420, 53.049 120.817, 48.562 118.169 C 41.224 113.839, 40.076 104.163, 45.675 93.835 C 52.492 81.260, 71.191 65.421, 90.856 55.564 C 99.830 51.065, 119.052 44, 122.318 44 C 123.178 44, 124.160 43.550, 124.500 43 C 125.123 41.991, 124.555 41.949, 120 42.666 M 162.750 43.732 C 165.088 43.943, 168.912 43.943, 171.250 43.732 C 173.588 43.522, 171.675 43.349, 167 43.349 C 162.325 43.349, 160.412 43.522, 162.750 43.732 M 203.624 44.539 C 202.659 47.053, 202.943 47.702, 204.122 45.675 C 204.706 44.671, 204.973 43.639, 204.715 43.382 C 204.458 43.124, 203.966 43.645, 203.624 44.539 M 186.500 47 C 187.495 48.100, 188.535 49, 188.810 49 C 189.085 49, 188.495 48.100, 187.500 47 C 186.505 45.900, 185.465 45, 185.190 45 C 184.915 45, 185.505 45.900, 186.500 47 M 162.500 56.128 C 137.603 59.238, 113.827 70.136, 98.501 85.462 C 84.401 99.562, 81.926 115.038, 92.641 122.102 C 97.229 125.127, 97.400 124.300, 93.042 120.155 C 89.332 116.625, 89 115.884, 89 111.115 C 89 101.803, 94.693 93.450, 108.151 83.013 C 123.219 71.329, 144.435 62.136, 165 58.382 C 180.496 55.553, 178.866 54.083, 162.500 56.128 M 197.624 57.539 C 196.659 60.053, 196.943 60.702, 198.122 58.675 C 198.706 57.671, 198.973 56.639, 198.715 56.382 C 198.458 56.124, 197.966 56.645, 197.624 57.539 M 189.750 65.662 C 190.438 65.940, 191.563 65.940, 192.250 65.662 C 192.938 65.385, 192.375 65.158, 191 65.158 C 189.625 65.158, 189.063 65.385, 189.750 65.662 M 141.750 86.706 C 142.988 86.944, 145.012 86.944, 146.250 86.706 C 147.488 86.467, 146.475 86.272, 144 86.272 C 141.525 86.272, 140.512 86.467, 141.750 86.706 M 174.250 86.689 C 175.213 86.941, 176.787 86.941, 177.750 86.689 C 178.713 86.438, 177.925 86.232, 176 86.232 C 174.075 86.232, 173.287 86.438, 174.250 86.689 M 167.924 89.750 L 165.500 92.500 168.250 90.076 C 170.820 87.810, 171.459 87, 170.674 87 C 170.495 87, 169.258 88.237, 167.924 89.750 M 202.750 89.536 C 200.252 92.876, 200.577 93.808, 203.114 90.582 C 204.277 89.104, 205.064 87.737, 204.864 87.545 C 204.664 87.353, 203.713 88.249, 202.750 89.536 M 252.100 89.295 C 250.835 91.402, 250.857 91.423, 252.579 89.774 C 253.570 88.824, 254.166 87.832, 253.903 87.569 C 253.640 87.306, 252.829 88.083, 252.100 89.295 M 153.100 89.705 C 153.829 90.917, 154.640 91.694, 154.903 91.431 C 155.166 91.168, 154.570 90.176, 153.579 89.226 C 151.857 87.577, 151.835 87.598, 153.100 89.705 M 130.924 91.750 L 128.500 94.500 131.250 92.076 C 133.820 89.810, 134.459 89, 133.674 89 C 133.495 89, 132.258 90.237, 130.924 91.750 M 297.158 95.367 C 299.982 101.092, 302 102.974, 302 99.882 C 302 99.332, 301.619 99.117, 301.154 99.405 C 300.689 99.692, 299.248 97.664, 297.952 94.898 C 296.657 92.132, 295.225 89.639, 294.770 89.358 C 294.315 89.077, 295.390 91.781, 297.158 95.367 M 170.541 92.933 C 170.144 93.576, 170.532 93.733, 171.549 93.343 C 172.476 92.987, 173.630 93.321, 174.177 94.104 C 174.989 95.266, 175.084 95.248, 174.743 94 C 174.250 92.190, 171.441 91.477, 170.541 92.933 M 155.252 96.500 C 155.263 98.700, 155.468 99.482, 155.707 98.238 C 155.946 96.994, 155.937 95.194, 155.687 94.238 C 155.437 93.282, 155.241 94.300, 155.252 96.500 M 332.655 96.250 C 332.909 96.662, 333.740 97, 334.500 97 C 335.260 97, 336.091 96.662, 336.345 96.250 C 336.600 95.838, 335.770 95.500, 334.500 95.500 C 333.230 95.500, 332.400 95.838, 332.655 96.250 M 326.458 97.068 C 326.095 97.656, 325.168 97.895, 324.399 97.600 C 323.629 97.304, 323 97.499, 323 98.031 C 323 99.524, 325.607 99.178, 327 97.500 C 327.685 96.675, 327.991 96, 327.681 96 C 327.372 96, 326.821 96.481, 326.458 97.068 M 287.064 98.500 C 287.064 99.050, 287.724 100.374, 288.532 101.441 C 289.339 102.509, 290 102.932, 290 102.382 C 290 101.832, 289.339 100.509, 288.532 99.441 C 287.724 98.374, 287.064 97.950, 287.064 98.500 M 125.195 105.500 C 125.215 107.150, 125.439 107.704, 125.693 106.731 C 125.947 105.758, 125.930 104.408, 125.656 103.731 C 125.382 103.054, 125.175 103.850, 125.195 105.500 M 160 103.694 C 160 104.259, 158.820 106.459, 157.379 108.584 C 155.937 110.708, 155.517 111.816, 156.445 111.046 C 158.548 109.300, 161.345 104.012, 160.574 103.240 C 160.258 102.925, 160 103.129, 160 103.694 M 217.600 103.674 C 218.205 104.128, 218.985 105.175, 219.332 106 C 219.777 107.054, 219.896 106.930, 219.732 105.583 C 219.605 104.528, 218.825 103.482, 218 103.257 C 217.035 102.994, 216.893 103.143, 217.600 103.674 M 258.731 106.080 C 259.085 107.432, 259.538 107.886, 259.788 107.137 C 260.028 106.415, 259.750 105.350, 259.168 104.768 C 258.426 104.026, 258.296 104.417, 258.731 106.080 M 326.234 105.294 C 327.188 106.066, 327.638 107.063, 327.234 107.509 C 326.831 107.955, 327.063 107.997, 327.750 107.601 C 329.479 106.606, 329.337 106.234, 326.750 104.980 C 324.731 104.002, 324.678 104.034, 326.234 105.294 M 150.066 109.268 C 147.218 112.778, 147.106 113.073, 149.408 111 C 151.800 108.845, 154.640 104.964, 153.785 105.018 C 153.628 105.028, 151.955 106.940, 150.066 109.268 M 331.189 105.619 C 332.117 105.896, 333.104 106.883, 333.381 107.811 C 333.747 109.036, 333.829 108.954, 333.681 107.511 C 333.561 106.346, 332.654 105.439, 331.489 105.319 C 330.046 105.171, 329.964 105.253, 331.189 105.619 M 164 106.391 C 164 106.605, 165.575 106.965, 167.500 107.190 C 169.425 107.415, 171 107.239, 171 106.799 C 171 106.360, 169.425 106, 167.500 106 C 165.575 106, 164 106.176, 164 106.391 M 250.139 109.033 C 248.841 110.115, 248.209 111, 248.734 111 C 249.260 111, 250.505 110.100, 251.500 109 C 253.787 106.473, 253.195 106.487, 250.139 109.033 M 218.136 110.128 C 218.061 111.576, 218.785 113.371, 219.750 114.128 C 221.273 115.322, 221.350 115.305, 220.346 114 C 219.711 113.175, 218.985 111.375, 218.732 110 L 218.272 107.500 218.136 110.128 M 138 110.583 C 136.319 111.516, 136.033 111.975, 137.128 111.985 C 138.023 111.993, 139.315 111.325, 140 110.500 C 141.460 108.740, 141.310 108.747, 138 110.583 M 180.192 111.931 C 180.314 113.543, 180.711 114.679, 181.073 114.455 C 181.745 114.039, 181.093 109, 180.368 109 C 180.148 109, 180.069 110.319, 180.192 111.931 M 213 110.441 C 213 111.234, 213.408 112.134, 213.907 112.442 C 214.405 112.751, 214.578 112.102, 214.290 111.001 C 213.679 108.666, 213 108.371, 213 110.441 M 231.015 111.200 C 231.007 112.135, 230.213 113.359, 229.250 113.920 C 228.287 114.481, 227.950 114.939, 228.500 114.938 C 230.676 114.935, 232.863 112.397, 231.943 110.942 C 231.185 109.744, 231.028 109.787, 231.015 111.200 M 306.980 112.524 C 306.284 113.362, 305.909 114.242, 306.145 114.479 C 306.382 114.715, 307.125 114.030, 307.796 112.955 C 309.248 110.630, 308.764 110.375, 306.980 112.524 M 223.269 115.693 C 224.242 115.947, 225.592 115.930, 226.269 115.656 C 226.946 115.382, 226.150 115.175, 224.500 115.195 C 222.850 115.215, 222.296 115.439, 223.269 115.693" stroke="none" fill="#b99738" fill-rule="evenodd"/><path d="M 136.205 3.254 C 135.414 4.206, 138.961 6.851, 150.976 14.268 C 164.797 22.799, 169.857 26.894, 170.096 29.739 C 170.131 30.158, 167.536 30.973, 164.330 31.551 L 158.500 32.602 152.740 27.221 C 149.572 24.261, 146.422 22.023, 145.740 22.248 C 145.058 22.472, 144.362 24.533, 144.193 26.828 C 144.023 29.122, 143.699 31, 143.471 31 C 143.243 31, 140.513 29.875, 137.404 28.500 C 127.388 24.070, 126.615 25.213, 134.417 32.918 C 137.531 35.994, 139.612 38.849, 139.310 39.634 C 138.976 40.504, 139.502 41, 140.757 41 C 141.931 41, 143.860 42.634, 145.529 45.042 C 148.624 49.509, 151.087 49.871, 151.999 45.995 C 152.583 43.507, 152.626 43.499, 167.043 43 L 181.500 42.500 185.250 45.334 L 189 48.168 189 56.584 C 189 64.887, 189.034 65, 191.492 65 C 194.451 65, 194.631 64.728, 201.364 50.067 L 206.614 38.635 215.557 36.891 C 225.315 34.988, 235.044 31.856, 238.758 29.423 C 242.629 26.886, 241.362 23.902, 235.500 21.754 C 229.818 19.673, 227.277 19.801, 211.500 22.963 L 200.500 25.168 170.648 13.584 C 154.230 7.213, 139.997 2, 139.021 2 C 138.044 2, 136.777 2.564, 136.205 3.254 M 136.500 88.412 C 130.494 91.081, 126 98.514, 126 105.779 C 126 110.128, 128.589 113.608, 132.568 114.606 C 134.124 114.997, 135.810 116.668, 136.998 118.995 C 138.944 122.810, 140.628 124, 144.082 124 C 146.782 124, 150 120.466, 150 117.500 C 150 114.868, 148.969 114.429, 146.184 115.874 C 145.258 116.355, 143.629 116.432, 142.563 116.046 C 140.895 115.440, 141.163 115.077, 144.499 113.421 C 150.756 110.317, 154.298 105.034, 154.802 98.054 C 155.187 92.739, 154.970 91.879, 152.661 89.570 C 150.533 87.443, 149.179 87.007, 144.795 87.039 C 141.883 87.061, 138.150 87.678, 136.500 88.412 M 168.737 89.753 C 167.286 91.267, 164.289 96.424, 162.077 101.212 C 159.677 106.406, 157.039 110.584, 155.536 111.568 C 152.119 113.808, 153.210 115, 158.676 115 C 162.814 115, 163.183 114.807, 162.684 112.899 C 162.382 111.744, 162.627 109.719, 163.228 108.399 C 164.070 106.550, 165.102 106, 167.728 106 C 170.797 106, 171.067 106.223, 170.449 108.250 C 170.072 109.487, 169.142 111.210, 168.382 112.079 C 166.049 114.744, 166.757 115.102, 173.750 114.796 C 179.475 114.545, 180.457 114.240, 180.215 112.788 C 180.058 111.846, 181.071 107.141, 182.465 102.331 C 185.517 91.805, 185.528 91.528, 183 89 C 181.554 87.554, 179.667 87, 176.187 87 C 172.241 87, 170.899 87.496, 168.737 89.753 M 190.885 87.750 C 190.822 88.162, 190.851 89.296, 190.951 90.269 C 191.225 92.947, 186.033 110.278, 184.417 112.079 C 182.031 114.737, 182.749 115.102, 189.750 114.796 C 195.807 114.530, 196.481 114.295, 196.318 112.500 C 196.055 109.619, 201.057 91.791, 202.653 89.921 C 203.394 89.053, 204 88.040, 204 87.671 C 204 86.743, 191.028 86.821, 190.885 87.750 M 207.885 87.637 C 207.822 88.111, 207.851 89.296, 207.951 90.269 C 208.225 92.949, 203.033 110.279, 201.415 112.081 C 199.339 114.394, 200.603 115, 207.500 115 C 214.127 115, 215.588 114.414, 213.932 112.418 C 213.197 111.532, 213.216 109.912, 213.996 107.014 C 214.920 103.583, 215.486 102.929, 217.305 103.188 C 219.238 103.463, 219.461 104.015, 219.176 107.808 C 218.998 110.178, 219.390 112.765, 220.048 113.558 C 221.442 115.238, 226.279 115.456, 229.066 113.965 C 231.120 112.866, 231.737 110, 229.921 110 C 229.252 110, 229.081 108.906, 229.473 107.124 C 229.894 105.208, 229.609 103.751, 228.619 102.762 C 227.306 101.449, 227.473 101.026, 230.067 99.109 C 233.623 96.479, 233.999 92.214, 230.920 89.427 C 229.234 87.902, 226.860 87.471, 218.420 87.159 C 212.689 86.947, 207.948 87.162, 207.885 87.637 M 240 89.793 C 240 93.682, 235.129 110.161, 233.413 112.079 C 232.636 112.947, 232 113.960, 232 114.329 C 232 114.698, 237.423 115, 244.051 115 L 256.102 115 257.605 111.402 C 260.578 104.286, 257.696 101.891, 252.807 107.414 C 249.355 111.313, 244.436 112.526, 245.358 109.250 C 248.579 97.813, 251.217 89.984, 252.017 89.489 C 254.527 87.938, 252.447 87, 246.500 87 C 240.051 87, 240 87.022, 240 89.793 M 267 90.293 C 267 94.993, 262.089 111.346, 260.388 112.311 C 257.605 113.891, 260.200 115, 266.676 115 C 272.785 115, 273.197 114.861, 272.699 112.958 C 272.064 110.529, 277.561 90.647, 279.001 90.167 C 279.550 89.983, 280 89.196, 280 88.417 C 280 87.340, 278.441 87, 273.500 87 L 267 87 267 90.293 M 284.135 89.750 C 284.349 93.285, 279.320 111.393, 278.002 111.833 C 277.451 112.016, 277 112.831, 277 113.644 C 277 114.730, 277.951 115.039, 280.595 114.810 C 284.087 114.509, 284.199 114.372, 284.511 110 C 284.688 107.525, 285.471 103.722, 286.250 101.549 L 287.667 97.599 291.584 105.512 C 298.371 119.227, 301.004 118.556, 305.749 101.904 C 307.536 95.632, 309.449 90.350, 309.999 90.167 C 310.550 89.983, 311 89.169, 311 88.356 C 311 87.261, 310.031 86.959, 307.250 87.190 C 304.170 87.445, 303.544 87.857, 303.744 89.500 C 303.977 91.415, 302.240 99.509, 301.188 101.410 C 300.911 101.911, 298.950 98.873, 296.830 94.660 L 292.976 87 288.472 87 C 284.185 87, 283.976 87.132, 284.135 89.750 M 314.500 88 C 314.160 88.550, 314.147 89.430, 314.472 89.954 C 315.204 91.140, 310.304 108.692, 308.397 111.715 C 307.629 112.933, 307 114.170, 307 114.465 C 307 114.759, 312.120 115, 318.378 115 C 330.780 115, 331.510 114.701, 332.619 109.155 C 333.154 106.478, 332.955 106, 331.299 106 C 330.226 106, 328.292 107.125, 327 108.500 C 325.708 109.875, 323.605 111, 322.326 111 C 319.674 111, 319.637 110.848, 321.053 105.750 C 322.112 101.935, 324.319 100.783, 325.362 103.500 C 326.479 106.412, 328.907 105.059, 330.027 100.899 C 331.272 96.277, 330.703 94.997, 328.202 96.792 C 323.512 100.156, 322.682 99.735, 324.074 94.694 C 324.959 91.491, 325.490 91, 328.072 91 C 330.350 91, 331.279 91.604, 332.028 93.573 C 333.365 97.089, 336.183 96.344, 337.384 92.157 C 338.122 89.583, 338.017 88.624, 336.919 87.929 C 334.965 86.692, 315.270 86.755, 314.500 88 M 141.830 91.062 C 139.155 92.581, 134.438 108.473, 135.941 110.904 C 138.182 114.530, 142.666 107.916, 144.986 97.562 C 146.237 91.980, 144.935 89.298, 141.830 91.062 M 217.228 95 C 216.313 98.603, 216.398 99, 218.083 99 C 219.112 99, 220.692 97.873, 221.595 96.495 C 222.918 94.476, 222.996 93.700, 221.996 92.495 C 219.900 89.970, 218.290 90.816, 217.228 95 M 168.500 97 L 165.966 102 169.277 102 C 172.323 102, 172.677 101.664, 173.714 97.776 C 174.334 95.453, 174.626 93.203, 174.362 92.776 C 173.124 90.774, 170.810 92.442, 168.500 97" stroke="none" fill="#284d80" fill-rule="evenodd"/></svg>